<?xml version="1.0" encoding="UTF-8"?>
<svg xmlns="http://www.w3.org/2000/svg" xmlns:xlink="http://www.w3.org/1999/xlink" width="50px" height="50px" viewBox="0 0 50 50" version="1.1">
<g id="surface1">
<path style=" stroke:none;fill-rule:nonzero;fill:rgb(0%,0%,0%);fill-opacity:1;" d="M 25 13.121094 C 31.261719 13.121094 36.566406 15.976562 39.90625 18.371094 C 43.863281 21.210938 45.90625 23.949219 46.433594 25 C 45.90625 26.046875 43.871094 28.789062 39.90625 31.628906 C 36.558594 34.023438 31.261719 36.878906 25 36.878906 C 18.738281 36.878906 13.441406 34.023438 10.09375 31.628906 C 6.128906 28.789062 4.09375 26.046875 3.566406 25 C 4.09375 23.953125 6.128906 21.210938 10.09375 18.371094 C 13.433594 15.976562 18.738281 13.121094 25 13.121094 M 25 10.148438 C 11.46875 10.148438 0.5 22.03125 0.5 25 C 0.5 27.96875 11.46875 39.851562 25 39.851562 C 38.53125 39.851562 49.5 27.96875 49.5 25 C 49.5 22.03125 38.53125 10.148438 25 10.148438 Z M 25 16.089844 C 20.078125 16.089844 16.089844 20.078125 16.089844 25 C 16.089844 29.921875 20.078125 33.910156 25 33.910156 C 29.921875 33.910156 33.910156 29.921875 33.910156 25 C 33.910156 20.078125 29.921875 16.089844 25 16.089844 Z M 22.601562 25 C 20.519531 25 18.828125 23.308594 18.828125 21.230469 C 18.828125 19.148438 20.519531 17.460938 22.601562 17.460938 C 24.679688 17.460938 26.371094 19.148438 26.371094 21.230469 C 26.371094 23.308594 24.683594 25 22.601562 25 Z M 22.601562 25 "/>
</g>
</svg>
